<?xml version="1.0" standalone="no"?>
<!DOCTYPE svg PUBLIC "-//W3C//DTD SVG 20010904//EN"
 "http://www.w3.org/TR/2001/REC-SVG-20010904/DTD/svg10.dtd">
<svg version="1.0" xmlns="http://www.w3.org/2000/svg"
 width="500.000000pt" height="500.000000pt" viewBox="0 0 500.000000 500.000000"
 preserveAspectRatio="xMidYMid meet">

<g transform="translate(0.000000,500.000000) scale(0.100000,-0.100000)"
fill="#000000" stroke="none">
<path d="M1200 2601 c0 -135 -3 -162 -17 -176 -9 -10 -26 -15 -40 -12 -17 3
-23 0 -23 -14 0 -30 64 -26 95 6 25 24 25 27 25 190 0 158 -1 165 -20 165 -19
0 -20 -7 -20 -159z"/>
<path d="M2125 2746 c-115 -51 -129 -262 -23 -340 62 -44 208 -27 208 25 0 20
-1 21 -25 5 -14 -9 -44 -19 -67 -22 -87 -11 -148 53 -148 156 0 68 24 117 71
142 43 23 73 23 127 -2 41 -19 42 -19 42 0 0 43 -117 66 -185 36z"/>
<path d="M1612 2708 c2 -15 10 -23 23 -23 30 0 27 39 -3 43 -20 3 -23 0 -20
-20z"/>
<path d="M1368 2625 c-37 -21 -58 -64 -58 -120 0 -84 37 -124 113 -125 40 0
53 5 77 28 52 52 50 151 -4 201 -31 29 -92 36 -128 16z m112 -52 c29 -37 24
-118 -10 -145 -25 -20 -61 -23 -90 -8 -26 14 -42 77 -30 119 14 48 28 61 70
61 30 0 43 -6 60 -27z"/>
<path d="M1830 2633 c-8 -3 -23 -12 -32 -21 -16 -14 -18 -13 -18 1 0 10 -8 17
-20 17 -19 0 -20 -7 -20 -125 0 -118 1 -125 20 -125 19 0 20 7 20 90 0 102 15
130 70 130 55 0 70 -28 70 -130 0 -83 1 -90 20 -90 19 0 20 7 20 95 0 89 -2
96 -27 125 -28 30 -74 45 -103 33z"/>
<path d="M2420 2622 c-19 -9 -36 -25 -38 -34 -5 -24 14 -23 45 2 33 26 68 25
94 -1 36 -36 22 -53 -50 -60 -54 -5 -69 -11 -89 -34 -26 -30 -24 -65 5 -97 22
-25 93 -24 125 1 24 19 24 19 36 0 14 -22 52 -26 52 -5 0 8 -7 16 -15 20 -12
4 -15 24 -15 88 -1 90 -9 111 -54 128 -38 14 -56 13 -96 -8z m120 -141 c0 -38
-40 -71 -87 -71 -36 0 -55 26 -45 62 5 21 16 24 120 37 7 0 12 -11 12 -28z"/>
<path d="M2728 2624 c-16 -8 -28 -10 -28 -4 0 5 -9 10 -20 10 -19 0 -20 -7
-20 -125 0 -118 1 -125 20 -125 19 0 20 7 20 93 0 106 11 127 68 127 48 0 62
-29 62 -132 0 -81 2 -88 20 -88 19 0 20 7 20 93 0 106 11 127 68 127 48 0 62
-29 62 -132 0 -81 2 -88 20 -88 19 0 20 7 20 91 0 100 -14 139 -57 158 -36 16
-56 14 -95 -13 l-34 -23 -28 23 c-31 27 -59 30 -98 8z"/>
<path d="M3193 2620 c-27 -16 -33 -17 -33 -5 0 8 -9 15 -20 15 -19 0 -20 -7
-20 -190 0 -183 1 -190 20 -190 18 0 20 7 20 85 l0 86 22 -21 c27 -25 94 -27
127 -4 72 51 64 191 -14 228 -43 21 -63 20 -102 -4z m107 -47 c18 -23 21 -37
17 -77 -5 -57 -32 -86 -77 -86 -45 0 -72 29 -77 86 -7 67 21 104 77 104 30 0
43 -6 60 -27z"/>
<path d="M3762 2630 c-28 -12 -46 -51 -38 -84 5 -20 20 -33 61 -51 31 -13 58
-31 61 -40 15 -37 -50 -60 -98 -34 -13 7 -24 7 -30 1 -16 -16 32 -42 77 -42
53 0 85 23 85 60 0 47 -10 60 -66 85 -40 18 -54 29 -54 45 0 28 40 46 69 31
21 -12 41 -8 41 9 0 8 -55 30 -74 29 -6 0 -21 -4 -34 -9z"/>
<path d="M1610 2505 c0 -118 1 -125 20 -125 19 0 20 7 20 125 0 118 -1 125
-20 125 -19 0 -20 -7 -20 -125z"/>
<path d="M3420 2550 c0 -88 16 -142 48 -159 30 -16 84 -13 110 5 20 14 22 14
22 0 0 -9 9 -16 20 -16 19 0 20 7 20 125 0 118 -1 125 -20 125 -19 0 -20 -7
-20 -90 0 -102 -15 -130 -69 -130 -51 0 -71 38 -71 136 0 77 -2 84 -20 84 -18
0 -20 -7 -20 -80z"/>
</g>
</svg>
