<?xml version="1.0" encoding="UTF-8"?>
<svg xmlns="http://www.w3.org/2000/svg" xmlns:xlink="http://www.w3.org/1999/xlink" width="375pt" height="374.999991pt" viewBox="0 0 375 374.999991" version="1.2">
<defs>
<clipPath id="clip1">
  <path d="M 22.535156 2.511719 L 357.121094 2.511719 L 357.121094 312 L 22.535156 312 Z M 22.535156 2.511719 "/>
</clipPath>
<clipPath id="clip2">
  <path d="M 17.863281 5 L 352.449219 5 L 352.449219 314.515625 L 17.863281 314.515625 Z M 17.863281 5 "/>
</clipPath>
<clipPath id="clip3">
  <path d="M 22.535156 60.480469 L 357.121094 60.480469 L 357.121094 370 L 22.535156 370 Z M 22.535156 60.480469 "/>
</clipPath>
<clipPath id="clip4">
  <path d="M 17.863281 63 L 352.449219 63 L 352.449219 372.484375 L 17.863281 372.484375 Z M 17.863281 63 "/>
</clipPath>
<clipPath id="clip5">
  <path d="M 39 4 L 336 4 L 336 302 L 39 302 Z M 39 4 "/>
</clipPath>
<clipPath id="clip6">
  <path d="M 187.496094 2.515625 L 338.109375 153.128906 L 187.496094 303.742188 L 36.882812 153.128906 Z M 187.496094 2.515625 "/>
</clipPath>
<clipPath id="clip7">
  <path d="M 187.496094 2.515625 L 338.109375 153.128906 L 187.496094 303.742188 L 36.882812 153.128906 Z M 187.496094 2.515625 "/>
</clipPath>
<clipPath id="clip8">
  <path d="M 89.875 92.273438 L 176.125 92.273438 L 176.125 222 L 89.875 222 Z M 89.875 92.273438 "/>
</clipPath>
<clipPath id="clip9">
  <path d="M 183.777344 98.058594 L 286.527344 98.058594 L 286.527344 216.558594 L 183.777344 216.558594 Z M 183.777344 98.058594 "/>
</clipPath>
</defs>
<g id="surface1">
<g clip-path="url(#clip1)" clip-rule="nonzero">
<path style=" stroke:none;fill-rule:nonzero;fill:rgb(28.239441%,48.239136%,87.838745%);fill-opacity:1;" d="M 357.113281 157.597656 C 357.203125 154.402344 355.902344 151.296875 353.480469 149.136719 L 196.992188 5.445312 C 192.753906 1.558594 186.261719 1.558594 182.019531 5.445312 L 25.535156 149.136719 C 23.285156 151.207031 21.984375 154.144531 21.984375 157.253906 C 21.984375 160.363281 23.285156 163.296875 25.535156 165.371094 L 182.019531 309.0625 C 186.261719 312.945312 192.753906 312.945312 196.992188 309.0625 L 353.480469 165.371094 C 355.730469 163.382812 357.027344 160.535156 357.113281 157.597656 Z M 329.765625 157.253906 L 189.550781 285.917969 L 49.335938 157.253906 L 189.550781 28.589844 Z M 329.765625 157.253906 "/>
</g>
<g clip-path="url(#clip2)" clip-rule="nonzero">
<path style=" stroke:none;fill-rule:nonzero;fill:rgb(28.239441%,48.239136%,87.838745%);fill-opacity:1;" d="M 17.871094 159.425781 C 17.78125 162.621094 19.082031 165.730469 21.503906 167.886719 L 177.992188 311.578125 C 182.230469 315.464844 188.722656 315.464844 192.964844 311.578125 L 349.449219 167.886719 C 351.699219 165.816406 353 162.878906 353 159.769531 C 353 156.660156 351.699219 153.726562 349.449219 151.652344 L 192.964844 7.964844 C 188.722656 4.078125 182.230469 4.078125 177.992188 7.964844 L 21.503906 151.652344 C 19.253906 153.640625 17.957031 156.488281 17.871094 159.425781 Z M 45.21875 159.769531 L 185.433594 31.105469 L 325.648438 159.769531 L 185.433594 288.4375 Z M 45.21875 159.769531 "/>
</g>
<g clip-path="url(#clip3)" clip-rule="nonzero">
<path style=" stroke:none;fill-rule:nonzero;fill:rgb(28.239441%,48.239136%,87.838745%);fill-opacity:1;" d="M 357.113281 215.570312 C 357.203125 212.375 355.902344 209.265625 353.480469 207.105469 L 196.992188 63.414062 C 192.753906 59.53125 186.261719 59.53125 182.019531 63.414062 L 25.535156 207.105469 C 23.285156 209.179688 21.984375 212.113281 21.984375 215.222656 C 21.984375 218.332031 23.285156 221.269531 25.535156 223.339844 L 182.019531 367.03125 C 186.261719 370.917969 192.753906 370.917969 196.992188 367.03125 L 353.480469 223.339844 C 355.730469 221.355469 357.027344 218.503906 357.113281 215.570312 Z M 329.765625 215.222656 L 189.550781 343.890625 L 49.335938 215.222656 L 189.550781 86.558594 Z M 329.765625 215.222656 "/>
</g>
<g clip-path="url(#clip4)" clip-rule="nonzero">
<path style=" stroke:none;fill-rule:nonzero;fill:rgb(28.239441%,48.239136%,87.838745%);fill-opacity:1;" d="M 17.871094 217.394531 C 17.78125 220.589844 19.082031 223.699219 21.503906 225.859375 L 177.992188 369.546875 C 182.230469 373.433594 188.722656 373.433594 192.964844 369.546875 L 349.449219 225.859375 C 351.699219 223.785156 353 220.847656 353 217.742188 C 353 214.632812 351.699219 211.695312 349.449219 209.625 L 192.964844 65.933594 C 188.722656 62.046875 182.230469 62.046875 177.992188 65.933594 L 21.503906 209.625 C 19.253906 211.609375 17.957031 214.460938 17.871094 217.394531 Z M 45.21875 217.742188 L 185.433594 89.074219 L 325.648438 217.742188 L 185.433594 346.40625 Z M 45.21875 217.742188 "/>
</g>
<g clip-path="url(#clip5)" clip-rule="nonzero">
<g clip-path="url(#clip6)" clip-rule="nonzero">
<g clip-path="url(#clip7)" clip-rule="nonzero">
<path style=" stroke:none;fill-rule:nonzero;fill:rgb(28.239441%,48.239136%,87.838745%);fill-opacity:1;" d="M 184.355469 300.292969 L 40.332031 156.269531 C 40.128906 156.0625 39.945312 155.835938 39.789062 155.59375 C 39.628906 155.347656 39.492188 155.09375 39.382812 154.824219 C 39.273438 154.554688 39.191406 154.277344 39.132812 153.992188 C 39.078125 153.707031 39.050781 153.417969 39.050781 153.128906 C 39.050781 152.835938 39.078125 152.546875 39.132812 152.261719 C 39.191406 151.976562 39.273438 151.699219 39.382812 151.429688 C 39.492188 151.160156 39.628906 150.90625 39.789062 150.664062 C 39.945312 150.417969 40.128906 150.195312 40.332031 149.988281 L 184.355469 5.964844 C 184.558594 5.753906 184.785156 5.570312 185.027344 5.40625 C 185.269531 5.242188 185.523438 5.105469 185.792969 4.992188 C 186.0625 4.878906 186.339844 4.792969 186.628906 4.738281 C 186.914062 4.679688 187.203125 4.652344 187.496094 4.652344 C 187.789062 4.652344 188.078125 4.679688 188.363281 4.738281 C 188.652344 4.792969 188.929688 4.878906 189.199219 4.992188 C 189.46875 5.105469 189.722656 5.242188 189.964844 5.40625 C 190.207031 5.570312 190.429688 5.753906 190.636719 5.964844 L 334.660156 149.988281 C 334.871094 150.191406 335.058594 150.414062 335.222656 150.65625 C 335.386719 150.898438 335.527344 151.152344 335.640625 151.421875 C 335.757812 151.691406 335.84375 151.96875 335.902344 152.257812 C 335.957031 152.542969 335.988281 152.835938 335.988281 153.128906 C 335.988281 153.421875 335.957031 153.710938 335.902344 153.996094 C 335.84375 154.285156 335.757812 154.5625 335.640625 154.832031 C 335.527344 155.101562 335.386719 155.359375 335.222656 155.601562 C 335.058594 155.839844 334.871094 156.0625 334.660156 156.269531 L 190.636719 300.292969 C 190.429688 300.496094 190.207031 300.679688 189.964844 300.84375 C 189.722656 301.003906 189.464844 301.140625 189.195312 301.253906 C 188.925781 301.367188 188.648438 301.449219 188.363281 301.507812 C 188.078125 301.5625 187.789062 301.59375 187.496094 301.59375 C 187.203125 301.59375 186.914062 301.5625 186.628906 301.507812 C 186.34375 301.449219 186.066406 301.367188 185.796875 301.253906 C 185.527344 301.140625 185.269531 301.003906 185.027344 300.84375 C 184.785156 300.679688 184.5625 300.496094 184.355469 300.292969 Z M 184.355469 300.292969 "/>
</g>
</g>
</g>
<g clip-path="url(#clip8)" clip-rule="nonzero">
<path style=" stroke:none;fill-rule:nonzero;fill:rgb(100%,100%,100%);fill-opacity:1;" d="M 173.25 92.320312 L 153.125 92.320312 C 151.535156 92.320312 150.25 93.609375 150.25 95.199219 L 150.25 181.03125 C 150.25 190.382812 143.101562 198.542969 133.777344 198.90625 C 123.898438 199.292969 115.75 191.445312 115.75 181.636719 C 115.75 180.046875 114.460938 178.757812 112.875 178.757812 L 92.75 178.757812 C 91.140625 178.757812 89.871094 180.085938 89.875 181.695312 C 89.90625 203.910156 109.238281 221.976562 133 221.976562 C 156.777344 221.976562 176.125 203.878906 176.125 181.636719 L 176.125 95.199219 C 176.125 93.609375 174.835938 92.320312 173.25 92.320312 Z M 173.25 92.320312 "/>
</g>
<g clip-path="url(#clip9)" clip-rule="nonzero">
<path style=" stroke:none;fill-rule:nonzero;fill:rgb(100%,100%,100%);fill-opacity:1;" d="M 266.148438 177.917969 C 265.015625 177.917969 264.0625 178.675781 263.695312 179.75 C 260.105469 190.183594 250.066406 195.949219 237.140625 195.949219 C 218.304688 195.949219 206.910156 181.664062 206.910156 157.269531 C 206.910156 132.953125 218.304688 118.667969 237.0625 118.667969 C 250.289062 118.667969 260.546875 125.570312 263.921875 137.328125 C 264.246094 138.460938 265.230469 139.277344 266.402344 139.277344 C 266.402344 139.277344 280.617188 139.285156 285.21875 139.277344 C 285.992188 139.273438 286.59375 138.589844 286.496094 137.820312 C 283.484375 114.730469 262.824219 98.058594 237.0625 98.058594 C 204.210938 98.058594 183.800781 120.777344 183.800781 157.347656 C 183.800781 193.867188 204.242188 216.558594 237.140625 216.558594 C 262.992188 216.558594 282.78125 201.65625 286.488281 179.425781 C 286.621094 178.644531 286.011719 177.921875 285.214844 177.917969 Z M 266.148438 177.917969 "/>
</g>
</g>
</svg>
