<?xml version="1.0" standalone="no"?>
<!DOCTYPE svg PUBLIC "-//W3C//DTD SVG 20010904//EN"
 "http://www.w3.org/TR/2001/REC-SVG-20010904/DTD/svg10.dtd">
<svg version="1.0" xmlns="http://www.w3.org/2000/svg"
 width="500.000000pt" height="500.000000pt" viewBox="0 0 500.000000 500.000000"
 preserveAspectRatio="xMidYMid meet">
<metadata>
Created by potrace 1.11, written by Peter Selinger 2001-2013
</metadata>
<g transform="translate(0.000000,500.000000) scale(0.100000,-0.100000)"
fill="#000000" stroke="none">
<path d="M2424 4927 c-50 -32 -2119 -1926 -2159 -1976 -15 -19 -20 -41 -20
-81 0 -69 1 -70 175 -229 74 -68 143 -131 153 -140 17 -16 10 -25 -139 -161
-86 -79 -165 -157 -175 -174 -21 -35 -24 -78 -8 -124 8 -23 306 -303 1071
-1004 583 -535 1069 -978 1081 -985 12 -7 45 -12 72 -12 39 -1 61 6 101 32 68
42 2144 1950 2167 1991 9 17 17 46 17 64 0 65 -30 99 -295 337 l-56 51 157
144 c86 80 165 158 176 175 20 34 23 78 7 123 -8 22 -310 306 -1064 998 -579
531 -1066 975 -1082 985 -46 31 -118 25 -179 -14z m-25 -1051 c9 -10 11 -204
9 -752 l-3 -739 -26 -67 c-80 -206 -245 -354 -459 -414 -47 -13 -99 -18 -185
-18 -141 1 -198 15 -327 81 -161 82 -287 245 -323 418 -17 83 -19 120 -5 146
10 18 23 19 189 19 131 0 181 -3 189 -12 5 -7 13 -36 17 -64 13 -100 82 -186
174 -219 101 -35 192 -14 273 65 92 90 88 52 88 855 0 524 3 694 12 703 19 19
362 17 377 -2z m1077 -167 c244 -64 435 -251 491 -482 14 -59 14 -70 2 -78
-19 -12 -266 -11 -289 1 -10 5 -31 38 -48 73 -68 146 -216 227 -392 214 -105
-7 -179 -38 -249 -102 -109 -101 -155 -237 -154 -450 1 -142 21 -242 66 -332
105 -206 358 -280 582 -169 82 40 101 59 147 141 l34 60 149 3 c84 1 153 -2
158 -7 6 -6 1 -36 -13 -83 -70 -233 -261 -394 -528 -444 -114 -22 -295 -14
-402 16 -262 75 -437 273 -506 575 -29 124 -26 389 5 510 63 245 189 410 386
505 110 54 182 68 346 69 107 1 152 -3 215 -20z m-1875 -2154 c424 -390 785
-718 801 -729 43 -27 120 -18 178 21 25 17 386 344 803 727 417 383 761 696
765 696 4 0 49 -40 100 -88 l93 -87 -906 -830 c-498 -456 -909 -831 -914 -833
-5 -2 -423 376 -928 839 -505 463 -922 845 -927 850 -11 9 134 150 151 146 6
-1 359 -321 784 -712z"/>
</g>
</svg>
