<?xml version="1.0" standalone="no"?>
<!DOCTYPE svg PUBLIC "-//W3C//DTD SVG 20010904//EN"
 "http://www.w3.org/TR/2001/REC-SVG-20010904/DTD/svg10.dtd">
<svg version="1.0" xmlns="http://www.w3.org/2000/svg"
 width="500.000000pt" height="500.000000pt" viewBox="0 0 500.000000 500.000000"
 preserveAspectRatio="xMidYMid meet">
<metadata>
Created by potrace 1.11, written by Peter Selinger 2001-2013
</metadata>
<g transform="translate(0.000000,500.000000) scale(0.100000,-0.100000)"
fill="#000000" stroke="none">
<path d="M2455 4950 c-22 -4 -58 -17 -81 -27 -22 -10 -427 -239 -899 -508
-927 -530 -943 -539 -1005 -656 -62 -118 -60 -61 -60 -1251 l0 -1088 675 0
675 0 0 185 0 185 -250 0 -250 0 -2 428 c-2 235 -2 439 0 455 l3 27 315 0
c292 0 314 -1 315 -17 0 -10 1 -184 2 -388 l2 -370 562 -3 563 -2 2 1062 3
1063 410 0 410 0 3 -1127 2 -1128 -355 0 -355 0 0 -185 0 -185 785 0 785 0 0
1068 c0 724 -3 1087 -11 1128 -17 93 -63 178 -133 247 -54 53 -165 119 -923
553 -474 270 -888 502 -920 514 -65 25 -201 35 -268 20z"/>
<path d="M3142 2923 l3 -998 290 0 290 0 3 998 2 997 -295 0 -295 0 2 -997z"/>
<path d="M1370 2265 l0 -345 193 2 192 3 3 343 2 342 -195 0 -195 0 0 -345z"/>
<path d="M1890 1605 l0 -185 565 0 565 0 0 185 0 185 -565 0 -565 0 0 -185z"/>
<path d="M450 1277 c0 -25 76 -132 121 -171 54 -46 1760 -1020 1838 -1049 86
-32 235 -30 316 4 33 13 447 245 920 514 761 434 867 497 921 550 34 33 73 84
88 113 l26 52 -2115 0 c-1765 0 -2115 -2 -2115 -13z"/>
</g>
</svg>
